<svg width="19" height="18" viewBox="0 0 19 18" fill="none" xmlns="http://www.w3.org/2000/svg">
<path fill-rule="evenodd" clip-rule="evenodd" d="M18.4984 7.05887H9.91016V11.1765H14.2631V12.706V14.353H15.0869V15.2942H16.8516V14.353H17.5573V12.706H18.4984V7.05889H18.4984V7.05887Z" fill="#4086F5"/>
<path fill-rule="evenodd" clip-rule="evenodd" d="M7.5594 13.4118V14.3529H11.5604V13.4118H14.2663V14.3529H14.9719V15.2941H16.0305V16.2353H14.9719V17.0588H3.91309V14.3529H4.85352V13.4118H7.5594ZM6.61932 18H13.3252V17.0588H6.61932V18Z" fill="#36A94E"/>
<path fill-rule="evenodd" clip-rule="evenodd" d="M4.9707 3.41177H2.38246V4.2353H1.44043V6.11765H3.91176V6.11766H0.5V12.7059H1.44043V13.4117H5.79337V12.2353H4.97058V11.1765H3.91177V7.05883H4.97058V6.11765H5.79337V4.2353H4.9707V3.41177ZM2.38246 13.4118H4.85305V14.4706H3.9111V15.4118H2.85227V14.4706H2.38246V13.4118Z" fill="#EFB000"/>
<path fill-rule="evenodd" clip-rule="evenodd" d="M13.3252 0H6.61932V0.823525H4.85352V1.7647H3.91309V3.41176H4.85352V4.23529H7.44175V3.41176H11.677V4.23529H15.0888V3.64705H16.031V2.58823H15.0896V1.7647H14.2653V0.823525H13.3252V0ZM6.85437 4.23531H5.79554V5.29413H6.85437V4.23531ZM13.2063 4.23531H14.2651V5.29413H13.2063V4.23531Z" fill="#D42021"/>
<path fill-rule="evenodd" clip-rule="evenodd" d="M13.3252 0H6.61932V0.823525H4.85352V1.7647H3.91309V3.41176H4.85352V4.23529H7.44175V3.41176H11.677V4.23529H15.0888V3.64705H16.031V2.58823H15.0896V1.7647H14.2653V0.823525H13.3252V0ZM6.85437 4.23531H5.79554V5.29413H6.85437V4.23531ZM13.2063 4.23531H14.2651V5.29413H13.2063V4.23531Z" fill="#D42021"/>
<path fill-rule="evenodd" clip-rule="evenodd" d="M13.3252 0H6.61932V0.823525H4.85352V1.7647H3.91309V3.41176H4.85352V4.23529H7.44175V3.41176H11.677V4.23529H15.0888V3.64705H16.031V2.58823H15.0896V1.7647H14.2653V0.823525H13.3252V0ZM6.85437 4.23531H5.79554V5.29413H6.85437V4.23531ZM13.2063 4.23531H14.2651V5.29413H13.2063V4.23531Z" fill="#D42021"/>
</svg>
