<svg width="268" height="71" viewBox="0 0 268 71" fill="none" xmlns="http://www.w3.org/2000/svg">
<rect x="88" y="28" width="18" height="29" fill="#EFB000"/>
<rect x="245" y="29" width="18" height="28" fill="#EFB000"/>
<path d="M88.142 62.3901V56.7695H105.004V62.3901H88.142ZM82.5215 56.7695V28.6667H88.142V56.7695H82.5215ZM105.004 56.7695V28.6667H110.624V56.7695H105.004ZM88.142 28.6667V23.0462H105.004V28.6667H88.142Z" fill="black"/>
<path d="M121.865 62.3901V56.7695H127.486V62.3901H121.865ZM133.107 62.3901V56.7695H138.727V62.3901H133.107ZM127.486 56.7695V39.9079H133.107V56.7695H127.486ZM116.245 56.7695V23.0462H121.865V56.7695H116.245ZM138.727 56.7695V23.0462H144.348V56.7695H138.727Z" fill="black"/>
<path d="M149.968 62.3901V23.0462H155.589V56.7695H178.071V62.3901H149.968Z" fill="black"/>
<path d="M183.692 62.3901V56.7695H189.312V28.6667H183.692V23.0462H200.553V28.6667H194.933V56.7695H200.553V62.3901H183.692Z" fill="black"/>
<path d="M217.415 45.5284V39.9079H223.036V45.5284H217.415ZM206.174 62.3901V23.0462H211.794V34.2873H217.415V39.9079H211.794V62.3901H206.174ZM228.656 62.3901V51.149H223.036V45.5284H228.656V23.0462H234.277V62.3901H228.656Z" fill="black"/>
<path d="M245.518 62.3901V56.7695H262.379V45.5284H251.138V39.9079H268V62.3901H245.518ZM239.897 56.7695V28.6667H245.518V56.7695H239.897ZM262.379 34.2873V28.6667H268V34.2873H262.379ZM245.518 28.6667V23.0462H262.379V28.6667H245.518Z" fill="black"/>
<rect x="7.06232" y="7.43939" width="7.06229" height="19.4213" fill="black"/>
<rect x="7.06232" y="7.43939" width="7.06229" height="19.4213" fill="black"/>
<rect x="7.06232" y="14.5017" width="60.0295" height="14.1246" fill="black"/>
<rect x="7.06232" y="14.5017" width="60.0295" height="14.1246" fill="black"/>
<rect width="7" height="22" fill="black"/>
<rect width="7" height="22" fill="black"/>
<rect y="28.6263" width="7.06229" height="28.2492" fill="black"/>
<rect y="28.6263" width="7.06229" height="28.2492" fill="black"/>
<rect x="67.0917" y="28.6263" width="7.06229" height="28.2492" fill="black"/>
<rect x="67.0917" y="28.6263" width="7.06229" height="28.2492" fill="black"/>
<rect x="60.0294" y="56.8754" width="7.06229" height="7.06229" fill="black"/>
<rect x="60.0294" y="56.8754" width="7.06229" height="7.06229" fill="black"/>
<rect x="33.5459" y="56.8754" width="7.06229" height="7.06229" fill="black"/>
<rect x="33.5459" y="56.8754" width="7.06229" height="7.06229" fill="black"/>
<rect x="33.5459" y="35.6886" width="7.06229" height="7.06229" fill="black"/>
<rect x="33.5459" y="35.6886" width="7.06229" height="7.06229" fill="black"/>
<rect x="26.4836" y="28.6263" width="21.1869" height="7.06229" fill="black"/>
<rect x="26.4836" y="28.6263" width="21.1869" height="7.06229" fill="black"/>
<rect x="7.06232" y="56.8754" width="7.06229" height="7.06229" fill="black"/>
<rect x="7.06232" y="56.8754" width="7.06229" height="7.06229" fill="black"/>
<rect x="26.4836" y="42.7509" width="7.06229" height="14.1246" fill="black"/>
<rect x="26.4836" y="42.7509" width="7.06229" height="14.1246" fill="black"/>
<rect x="40.6082" y="42.7509" width="7.06229" height="14.1246" fill="black"/>
<rect x="40.6082" y="42.7509" width="7.06229" height="14.1246" fill="black"/>
<rect x="14.1246" y="63.9377" width="19.4213" height="7.06229" fill="black"/>
<rect x="14.1246" y="63.9377" width="19.4213" height="7.06229" fill="black"/>
<rect x="40.6082" y="63.9377" width="19.4213" height="7.06229" fill="black"/>
<rect x="40.6082" y="63.9377" width="19.4213" height="7.06229" fill="black"/>
<rect x="60.0294" y="7.43939" width="7.06229" height="19.4213" fill="black"/>
<rect x="60.0294" y="7.43939" width="7.06229" height="19.4213" fill="black"/>
<rect x="47.6704" y="7.43939" width="7.06229" height="21.1869" transform="rotate(90 47.6704 7.43939)" fill="black"/>
<rect x="47.6704" y="7.43939" width="7.06229" height="21.1869" transform="rotate(90 47.6704 7.43939)" fill="black"/>
<rect x="67" width="7" height="22" fill="black"/>
<rect x="67" width="7" height="22" fill="black"/>
<rect x="14.1246" y="56.8754" width="19.4213" height="7.06229" fill="#9D6A2C"/>
<rect x="40.6082" y="56.8754" width="19.4213" height="7.06229" fill="#9D6A2C"/>
<rect x="47.6704" y="49.8131" width="19.4213" height="7.06229" fill="#9D6A2C"/>
<rect x="7.06232" y="49.8131" width="19.4213" height="7.06229" fill="#9D6A2C"/>
<rect x="7.06232" y="49.8131" width="21.1869" height="7.06229" transform="rotate(-90 7.06232 49.8131)" fill="#9D6A2C"/>
<rect x="60.0294" y="49.8131" width="21.1869" height="7.06229" transform="rotate(-90 60.0294 49.8131)" fill="#9D6A2C"/>
<rect x="33.5459" y="21.564" width="7.06229" height="7.06229" fill="#9D6A2C"/>
<rect x="33.5459" y="42.7509" width="7.06229" height="14.1246" fill="#EFB000"/>
<rect x="47.6704" y="35.6886" width="7.06229" height="7.06229" fill="black"/>
<rect x="47.6704" y="35.6886" width="7.06229" height="7.06229" fill="black"/>
<rect x="19.4213" y="35.6886" width="7.06229" height="7.06229" fill="black"/>
<rect x="19.4213" y="35.6886" width="7.06229" height="7.06229" fill="black"/>
<rect x="26.4836" y="14.5017" width="21.1869" height="7.06229" fill="#9D6A2C"/>
</svg>
