<svg width="15" height="14" viewBox="0 0 15 14" fill="none" xmlns="http://www.w3.org/2000/svg">
<circle cx="7.01179" cy="7.01179" r="6.01179" fill="#D9D0B1"/>
<rect x="4.90625" y="0.750313" width="5.3985" height="1.39064" fill="black" stroke="black" stroke-width="0.5"/>
<rect x="4.90625" y="12.3286" width="5.3985" height="1.39064" fill="black" stroke="black" stroke-width="0.5"/>
<mask id="path-4-outside-1_155_2" maskUnits="userSpaceOnUse" x="2.82031" y="10.688" width="10" height="3" fill="black">
<rect fill="white" x="2.82031" y="10.688" width="10" height="3"/>
<path fill-rule="evenodd" clip-rule="evenodd" d="M5.15627 11.688H3.82031V12.5786H5.15627V11.688ZM11.3909 11.6881H10.055V12.5788H11.3909V11.6881Z"/>
</mask>
<path fill-rule="evenodd" clip-rule="evenodd" d="M5.15627 11.688H3.82031V12.5786H5.15627V11.688ZM11.3909 11.6881H10.055V12.5788H11.3909V11.6881Z" fill="black"/>
<path d="M3.82031 11.688V11.188H3.32031V11.688H3.82031ZM5.15627 11.688H5.65627V11.188H5.15627V11.688ZM3.82031 12.5786H3.32031V13.0786H3.82031V12.5786ZM5.15627 12.5786V13.0786H5.65627V12.5786H5.15627ZM10.055 11.6881V11.1881H9.55496V11.6881H10.055ZM11.3909 11.6881H11.8909V11.1881H11.3909V11.6881ZM10.055 12.5788H9.55496V13.0788H10.055V12.5788ZM11.3909 12.5788V13.0788H11.8909V12.5788H11.3909ZM3.82031 12.188H5.15627V11.188H3.82031V12.188ZM4.32031 12.5786V11.688H3.32031V12.5786H4.32031ZM5.15627 12.0786H3.82031V13.0786H5.15627V12.0786ZM4.65627 11.688V12.5786H5.65627V11.688H4.65627ZM10.055 12.1881H11.3909V11.1881H10.055V12.1881ZM10.555 12.5788V11.6881H9.55496V12.5788H10.555ZM11.3909 12.0788H10.055V13.0788H11.3909V12.0788ZM10.8909 11.6881V12.5788H11.8909V11.6881H10.8909Z" fill="black" mask="url(#path-4-outside-1_155_2)"/>
<mask id="path-6-outside-2_155_2" maskUnits="userSpaceOnUse" x="2.82031" y="0.890957" width="10" height="3" fill="black">
<rect fill="white" x="2.82031" y="0.890957" width="10" height="3"/>
<path fill-rule="evenodd" clip-rule="evenodd" d="M5.15627 1.89096H3.82031V2.78159H5.15627V1.89096ZM11.3909 1.89102H10.055V2.78166H11.3909V1.89102Z"/>
</mask>
<path fill-rule="evenodd" clip-rule="evenodd" d="M5.15627 1.89096H3.82031V2.78159H5.15627V1.89096ZM11.3909 1.89102H10.055V2.78166H11.3909V1.89102Z" fill="black"/>
<path d="M3.82031 1.89096V1.39096H3.32031V1.89096H3.82031ZM5.15627 1.89096H5.65627V1.39096H5.15627V1.89096ZM3.82031 2.78159H3.32031V3.28159H3.82031V2.78159ZM5.15627 2.78159V3.28159H5.65627V2.78159H5.15627ZM10.055 1.89102V1.39102H9.55496V1.89102H10.055ZM11.3909 1.89102H11.8909V1.39102H11.3909V1.89102ZM10.055 2.78166H9.55496V3.28166H10.055V2.78166ZM11.3909 2.78166V3.28166H11.8909V2.78166H11.3909ZM3.82031 2.39096H5.15627V1.39096H3.82031V2.39096ZM4.32031 2.78159V1.89096H3.32031V2.78159H4.32031ZM5.15627 2.28159H3.82031V3.28159H5.15627V2.28159ZM4.65627 1.89096V2.78159H5.65627V1.89096H4.65627ZM10.055 2.39102H11.3909V1.39102H10.055V2.39102ZM10.555 2.78166V1.89102H9.55496V2.78166H10.555ZM11.3909 2.28166H10.055V3.28166H11.3909V2.28166ZM10.8909 1.89102V2.78166H11.8909V1.89102H10.8909Z" fill="black" mask="url(#path-6-outside-2_155_2)"/>
<rect x="2.58594" y="4.46115" width="5.3985" height="1.39064" transform="rotate(90 2.58594 4.46115)" fill="black" stroke="black" stroke-width="0.5"/>
<rect x="4.21875" y="2.3833" width="1.39064" height="1.39064" transform="rotate(90 4.21875 2.3833)" fill="black" stroke="black" stroke-width="0.5"/>
<rect x="12.5313" y="2.3833" width="1.39064" height="1.39064" transform="rotate(90 12.5313 2.3833)" fill="black" stroke="black" stroke-width="0.5"/>
<rect x="4.21875" y="10.6959" width="1.39064" height="1.39064" transform="rotate(90 4.21875 10.6959)" fill="black" stroke="black" stroke-width="0.5"/>
<rect x="12.5313" y="10.6959" width="1.39064" height="1.39064" transform="rotate(90 12.5313 10.6959)" fill="black" stroke="black" stroke-width="0.5"/>
<mask id="path-13-outside-3_155_2" maskUnits="userSpaceOnUse" x="1.33594" y="2.37508" width="3" height="10" fill="black">
<rect fill="white" x="1.33594" y="2.37508" width="3" height="10"/>
<path fill-rule="evenodd" clip-rule="evenodd" d="M3.22657 4.85947L3.22657 3.37508H2.33594V4.85947H3.22657ZM3.22657 10.9457L3.22657 9.46128H2.33594V10.9457H3.22657Z"/>
</mask>
<path fill-rule="evenodd" clip-rule="evenodd" d="M3.22657 4.85947L3.22657 3.37508H2.33594V4.85947H3.22657ZM3.22657 10.9457L3.22657 9.46128H2.33594V10.9457H3.22657Z" fill="black"/>
<path d="M3.22657 3.37508L3.72657 3.37508V2.87508H3.22657V3.37508ZM3.22657 4.85947V5.35947H3.72657V4.85947H3.22657ZM2.33594 3.37508V2.87508H1.83594V3.37508H2.33594ZM2.33594 4.85947H1.83594V5.35947H2.33594V4.85947ZM3.22657 9.46128H3.72657V8.96128H3.22657V9.46128ZM3.22657 10.9457V11.4457H3.72657V10.9457H3.22657ZM2.33594 9.46128V8.96128H1.83594V9.46128H2.33594ZM2.33594 10.9457H1.83594V11.4457H2.33594V10.9457ZM2.72657 3.37508L2.72657 4.85947H3.72657L3.72657 3.37508L2.72657 3.37508ZM2.33594 3.87508H3.22657V2.87508H2.33594V3.87508ZM2.83594 4.85947V3.37508H1.83594V4.85947H2.83594ZM3.22657 4.35947H2.33594V5.35947H3.22657V4.35947ZM2.72657 9.46128L2.72657 10.9457H3.72657L3.72657 9.46128H2.72657ZM2.33594 9.96128H3.22657V8.96128H2.33594V9.96128ZM2.83594 10.9457V9.46128H1.83594V10.9457H2.83594ZM3.22657 10.4457H2.33594V11.4457H3.22657V10.4457Z" fill="black" mask="url(#path-13-outside-3_155_2)"/>
<mask id="path-15-outside-4_155_2" maskUnits="userSpaceOnUse" x="11.1328" y="2.37508" width="3" height="10" fill="black">
<rect fill="white" x="11.1328" y="2.37508" width="3" height="10"/>
<path fill-rule="evenodd" clip-rule="evenodd" d="M13.0234 4.85947L13.0234 3.37508H12.1328V4.85947H13.0234ZM13.0234 10.9457L13.0234 9.46128H12.1328V10.9457H13.0234Z"/>
</mask>
<path fill-rule="evenodd" clip-rule="evenodd" d="M13.0234 4.85947L13.0234 3.37508H12.1328V4.85947H13.0234ZM13.0234 10.9457L13.0234 9.46128H12.1328V10.9457H13.0234Z" fill="black"/>
<path d="M13.0234 3.37508L13.5234 3.37508V2.87508H13.0234V3.37508ZM13.0234 4.85947V5.35947H13.5234V4.85947H13.0234ZM12.1328 3.37508V2.87508H11.6328V3.37508H12.1328ZM12.1328 4.85947H11.6328V5.35947H12.1328V4.85947ZM13.0234 9.46128H13.5234V8.96128H13.0234V9.46128ZM13.0234 10.9457V11.4457H13.5234V10.9457H13.0234ZM12.1328 9.46128V8.96128H11.6328V9.46128H12.1328ZM12.1328 10.9457H11.6328V11.4457H12.1328V10.9457ZM12.5234 3.37508L12.5234 4.85947H13.5234L13.5234 3.37508L12.5234 3.37508ZM12.1328 3.87508H13.0234V2.87508H12.1328V3.87508ZM12.6328 4.85947V3.37508H11.6328V4.85947H12.6328ZM13.0234 4.35947H12.1328V5.35947H13.0234V4.35947ZM12.5234 9.46128L12.5234 10.9457H13.5234L13.5234 9.46128H12.5234ZM12.1328 9.96128H13.0234V8.96128H12.1328V9.96128ZM12.6328 10.9457V9.46128H11.6328V10.9457H12.6328ZM13.0234 10.4457H12.1328V11.4457H13.0234V10.4457Z" fill="black" mask="url(#path-15-outside-4_155_2)"/>
<rect x="14.1641" y="4.46115" width="5.3985" height="1.39064" transform="rotate(90 14.1641 4.46115)" fill="black" stroke="black" stroke-width="0.5"/>
<circle cx="7.5" cy="7.5" r="2.5" fill="#5803C5"/>
</svg>
